<mxfile host="app.diagrams.net" modified="2022-12-01T23:36:30.661Z" agent="5.0 (Macintosh; Intel Mac OS X 10_15_7) AppleWebKit/537.36 (KHTML, like Gecko) Chrome/107.0.0.0 Safari/537.36" etag="eD4SCTuneh9Bbj4WrHHp" version="20.5.3" type="github">
  <diagram id="jxACQgd__7FMuB1FVR79" name="Página-1">
    <mxGraphModel dx="1198" dy="700" grid="1" gridSize="10" guides="1" tooltips="1" connect="1" arrows="1" fold="1" page="1" pageScale="1" pageWidth="827" pageHeight="1169" math="0" shadow="0">
      <root>
        <mxCell id="0" />
        <mxCell id="1" parent="0" />
        <mxCell id="lfmEGdYMq204lVG7bD-Z-7" value="" style="edgeStyle=orthogonalEdgeStyle;rounded=0;orthogonalLoop=1;jettySize=auto;html=1;" edge="1" parent="1" source="lfmEGdYMq204lVG7bD-Z-2" target="lfmEGdYMq204lVG7bD-Z-3">
          <mxGeometry relative="1" as="geometry" />
        </mxCell>
        <mxCell id="lfmEGdYMq204lVG7bD-Z-2" value="Inicio" style="strokeWidth=2;html=1;shape=mxgraph.flowchart.terminator;whiteSpace=wrap;" vertex="1" parent="1">
          <mxGeometry x="360" y="50" width="100" height="60" as="geometry" />
        </mxCell>
        <mxCell id="lfmEGdYMq204lVG7bD-Z-8" value="" style="edgeStyle=orthogonalEdgeStyle;rounded=0;orthogonalLoop=1;jettySize=auto;html=1;" edge="1" parent="1" source="lfmEGdYMq204lVG7bD-Z-3" target="lfmEGdYMq204lVG7bD-Z-4">
          <mxGeometry relative="1" as="geometry" />
        </mxCell>
        <mxCell id="lfmEGdYMq204lVG7bD-Z-3" value="&quot;Informe seu nome, nomeUsuario&quot;" style="shape=card;whiteSpace=wrap;html=1;" vertex="1" parent="1">
          <mxGeometry x="299" y="160" width="230" height="100" as="geometry" />
        </mxCell>
        <mxCell id="lfmEGdYMq204lVG7bD-Z-9" value="" style="edgeStyle=orthogonalEdgeStyle;rounded=0;orthogonalLoop=1;jettySize=auto;html=1;" edge="1" parent="1" source="lfmEGdYMq204lVG7bD-Z-4" target="lfmEGdYMq204lVG7bD-Z-5">
          <mxGeometry relative="1" as="geometry" />
        </mxCell>
        <mxCell id="lfmEGdYMq204lVG7bD-Z-4" value="&quot;Informe sua idade, idadeUsuario&quot;" style="shape=card;whiteSpace=wrap;html=1;" vertex="1" parent="1">
          <mxGeometry x="299" y="310" width="230" height="100" as="geometry" />
        </mxCell>
        <mxCell id="lfmEGdYMq204lVG7bD-Z-10" value="" style="edgeStyle=orthogonalEdgeStyle;rounded=0;orthogonalLoop=1;jettySize=auto;html=1;" edge="1" parent="1" source="lfmEGdYMq204lVG7bD-Z-5" target="lfmEGdYMq204lVG7bD-Z-6">
          <mxGeometry relative="1" as="geometry" />
        </mxCell>
        <mxCell id="lfmEGdYMq204lVG7bD-Z-5" value="&quot;Ola, seu nome é nomeUsuario e voce tem idadeUsuario anos.&quot;" style="shape=document;whiteSpace=wrap;html=1;boundedLbl=1;" vertex="1" parent="1">
          <mxGeometry x="299" y="480" width="231" height="110" as="geometry" />
        </mxCell>
        <mxCell id="lfmEGdYMq204lVG7bD-Z-6" value="Fim" style="strokeWidth=2;html=1;shape=mxgraph.flowchart.terminator;whiteSpace=wrap;" vertex="1" parent="1">
          <mxGeometry x="370" y="630" width="100" height="60" as="geometry" />
        </mxCell>
      </root>
    </mxGraphModel>
  </diagram>
</mxfile>
